<svg class="w-banner__logo--mobile" width="28" height="20" viewBox="0 0 24 16" fill="none" xmlns="http://www.w3.org/2000/svg">
              <path d="M23.5555 0.476169C23.1622 0.189752 22.6564 0.218393 22.2912 0.519132L6.10811 13.7087L2.66639 3.68405L5.79905 6.24748C6.1362 6.51958 6.59978 6.51958 6.93693 6.24748L11.9801 2.12307L13.8766 3.66972C14.2699 3.98478 14.8458 3.9275 15.1549 3.52652C15.464 3.12553 15.4078 2.53838 15.0144 2.22332L12.5701 0.204073C12.233 -0.0680242 11.7694 -0.0680242 11.4322 0.204073L6.37501 4.32849L1.71114 0.519132C1.34589 0.218393 0.826124 0.204073 0.446833 0.476169C0.0534943 0.762587 -0.101032 1.2495 0.067542 1.70776L4.68928 15.1694C4.81571 15.5417 5.11071 15.8282 5.49 15.9427C5.85524 16.0573 6.26263 15.9714 6.57168 15.7279L21.3359 3.68405L17.8942 13.7087L15.7309 11.9472C15.3375 11.6321 14.7616 11.6894 14.4525 12.0904C14.1435 12.4914 14.1997 13.0785 14.593 13.3936L17.4587 15.7279C17.6695 15.8998 17.9364 16 18.2033 16C18.3157 16 18.428 15.9857 18.5264 15.957C18.8916 15.8425 19.2007 15.5561 19.3271 15.1837L23.9488 1.72209C24.0893 1.2495 23.9348 0.762587 23.5555 0.476169Z" fill="white"></path>
            </svg>