<svg xmlns="http://www.w3.org/2000/svg" data-name="Layer 1" viewBox="0 0 64 64" x="0px" y="0px" style="max-width:100%" height="100%"><title style="" fill="currentColor">gloves-gaunlet-glove-hands-finger</title><path d="M58.5,13a3.473,3.473,0,0,0-1.5.338V10.5a3.5,3.5,0,0,0-5-3.162V5.5a3.5,3.5,0,0,0-7-.16A3.5,3.5,0,0,0,40,8.5V19.338A3.5,3.5,0,0,0,35,22.5V46a1,1,0,0,0,.293.707L40,51.414V61a1,1,0,0,0,1,1H61a1,1,0,0,0,1-1V16.5A3.5,3.5,0,0,0,58.5,13ZM60,56H54v2h6v2H42V58h6V56H42V54H60Zm0-4H42V51a1,1,0,0,0-.293-.707L37,45.586V22.5a1.5,1.5,0,0,1,3,0V32a1,1,0,0,0,2,0V8.5a1.5,1.5,0,0,1,3,0V28a1,1,0,0,0,2,0V5.5a1.5,1.5,0,0,1,3,0V28a1,1,0,0,0,2,0V10.5a1.5,1.5,0,0,1,3,0V29a1,1,0,0,0,2,0V16.5a1.5,1.5,0,0,1,3,0Z" style="" fill="currentColor"></path><path d="M3,62H23a1,1,0,0,0,1-1V51.414l4.707-4.707A1,1,0,0,0,29,46V22.5a3.5,3.5,0,0,0-5-3.162V8.5a3.5,3.5,0,0,0-5-3.16,3.5,3.5,0,0,0-7,.16V7.338A3.5,3.5,0,0,0,7,10.5v2.838A3.5,3.5,0,0,0,2,16.5V61A1,1,0,0,0,3,62ZM4,16.5a1.5,1.5,0,0,1,3,0V29a1,1,0,0,0,2,0V10.5a1.5,1.5,0,0,1,3,0V28a1,1,0,0,0,2,0V5.5a1.5,1.5,0,0,1,3,0V28a1,1,0,0,0,2,0V8.5a1.5,1.5,0,0,1,3,0V32a1,1,0,0,0,2,0V22.5a1.5,1.5,0,0,1,3,0V45.586l-4.707,4.707A1,1,0,0,0,22,51v1H4ZM4,58h6V56H4V54H22v2H16v2h6v2H4Z" style="" fill="currentColor"></path><rect x="12" y="56" width="2" height="2" style="" fill="currentColor"></rect><rect x="50" y="56" width="2" height="2" style="" fill="currentColor"></rect></svg>