<svg xmlns="http://www.w3.org/2000/svg" xmlns:xlink="http://www.w3.org/1999/xlink" version="1.1" x="0px" y="0px" viewBox="0 0 512 512" enable-background="new 0 0 512 512" xml:space="preserve" style="max-width:100%" height="100%"><path d="M437.328,277.344h-10.656c0-14.953-10.266-27.5-24.125-31.016c-2.984-26.016-8.953-65.422-20.406-105.266  c-11.484-39.969-26.156-71.969-43.609-95.141C315.562,15.453,287.766,0,255.875,0s-59.703,15.453-82.656,45.922  c-17.453,23.172-32.125,55.172-43.609,95.141c-11.453,39.844-17.422,79.25-20.422,105.266  c-13.859,3.516-24.109,16.062-24.109,31.016H74.672C68.781,277.344,64,282.125,64,288v213.344C64,507.234,68.781,512,74.672,512  h362.656c5.891,0,10.672-4.766,10.672-10.656V288C448,282.125,443.219,277.344,437.328,277.344z M298.547,373.344h-85.344  c-5.891,0-10.656,4.781-10.656,10.656v10.672h-47.312l-57.969-96h317.203l-57.953,96h-47.312V384  C309.203,378.125,304.438,373.344,298.547,373.344z M287.875,394.672V416h-64v-21.328H287.875z M384,277.344  c0-5.891,4.781-10.672,10.672-10.672c5.875,0,10.656,4.781,10.656,10.672H384z M190.266,58.766  c18.969-25.188,40.438-37.422,65.609-37.422c25.141,0,46.578,12.203,65.531,37.312c15.875,21.016,29.375,50.625,40.141,88  c10.938,37.953,16.75,76.266,19.719,101.625c-10.984,5.078-18.594,16.172-18.594,29.062H149.078  c0-12.891-7.625-23.984-18.594-29.062c2.938-25.266,8.734-63.422,19.625-101.328C160.875,109.5,174.375,79.828,190.266,58.766z   M117.078,266.672c5.875,0,10.672,4.781,10.672,10.672h-21.344C106.406,271.453,111.203,266.672,117.078,266.672z M85.328,490.672  V320.188L143.188,416h59.359v10.672c0,5.891,4.766,10.672,10.656,10.672h85.344c5.891,0,10.656-4.781,10.656-10.672V416h59.359  l58.109-96.25v170.922H85.328z" style="" fill="currentColor"></path></svg>