<svg xmlns="http://www.w3.org/2000/svg" xmlns:xlink="http://www.w3.org/1999/xlink" version="1.1" viewBox="0 0 96 96" x="0px" y="0px" style="max-width:100%" height="100%"><path d="M48 81.876c-26.916 0-48-10.544-48-24 0-7.248 6.26-13.992 17.18-18.5 1.020-0.416 2.188 0.060 2.612 1.084 0.416 1.020-0.064 2.188-1.084 2.608-9.348 3.86-14.708 9.26-14.708 14.808 0 10.84 20.152 20 44 20s44-9.16 44-20c0-5.548-5.364-10.948-14.712-14.808-1.024-0.416-1.508-1.584-1.084-2.608 0.42-1.028 1.596-1.504 2.612-1.084 10.92 4.504 17.184 11.248 17.184 18.5 0 13.456-21.084 24-48 24z" fill="currentColor" style=""></path><path d="M48 69.876c-17.892 0-36-4.12-36-12 1.424-7.624 9.004-43.752 22-43.752 3.708 0 6.276 2.452 8.544 4.616 1.9 1.816 3.536 3.384 5.456 3.384s3.556-1.572 5.456-3.384c2.268-2.168 4.836-4.616 8.544-4.616 12.996 0 20.58 36.128 21.964 43.372 0.036 8.256-18.072 12.38-35.964 12.38zM34 18.124c-7.136 0-14.844 23.46-18.036 40.124 0.036 2.42 11.028 7.628 32.036 7.628s32-5.208 32-8c-3.16-16.284-10.868-39.752-18-39.752-2.1 0-3.808 1.624-5.78 3.512-2.204 2.1-4.696 4.488-8.22 4.488s-6.016-2.388-8.22-4.488c-1.972-1.884-3.676-3.512-5.78-3.512z" fill="currentColor" style=""></path><path d="M48 61.876c-16.896 0-34-4.12-34-12 0-1.1 0.896-2 2-2s2 0.9 2 2c0 3.26 11.688 8 30 8s30-4.74 30-8c0-1.1 0.9-2 2-2s2 0.9 2 2c0 7.876-17.1 12-34 12z" fill="currentColor" style=""></path></svg>