<svg width="94" height="46" viewBox="0 0 94 46" fill="none" xmlns="http://www.w3.org/2000/svg">
<path d="M10.76 31.12V5.6L7.28 5.24V4.28H18.36V5.24L14.88 5.6V28.88C14.88 34.72 13.2667 38.4133 10.04 39.96C8.78667 40.5467 7.34667 40.84 5.72 40.84C4.09333 40.84 2.74667 40.56 1.68 40C0.613333 39.44 0.0799999 38.4933 0.0799999 37.16C0.0799999 36.6 0.333333 36.1067 0.84 35.68C1.32 35.28 1.84 35.08 2.4 35.08C2.96 35.08 3.41333 35.1333 3.76 35.24C3.6 35.8 3.52 36.32 3.52 36.8C3.52 38.5867 4.37333 39.48 6.08 39.48C9.2 39.48 10.76 36.6933 10.76 31.12ZM40.6116 21.24C40.6116 24.2 39.7182 26.64 37.9316 28.56C36.1449 30.48 33.7049 31.44 30.6116 31.44C27.5449 31.44 25.1182 30.48 23.3316 28.56C21.5449 26.64 20.6516 24.2 20.6516 21.24C20.6516 18.28 21.5449 15.84 23.3316 13.92C25.1182 12 27.5449 11.04 30.6116 11.04C33.7049 11.04 36.1449 12 37.9316 13.92C39.7182 15.84 40.6116 18.28 40.6116 21.24ZM25.0116 21.24C25.0116 27.4 26.8782 30.48 30.6116 30.48C34.3716 30.48 36.2516 27.4 36.2516 21.24C36.2516 18.2533 35.8249 15.9733 34.9716 14.4C34.1182 12.8267 32.6782 12.04 30.6516 12.04C28.6249 12.04 27.1716 12.8267 26.2916 14.4C25.4382 15.9733 25.0116 18.2533 25.0116 21.24ZM52.6862 31H43.4863V30.04L46.1263 29.84V2.28L42.5663 2.12V1.2L50.0463 0.359999V29.84L52.6862 30.04V31ZM64.0534 31H54.8534V30.04L57.4934 29.84V2.28L53.9334 2.12V1.2L61.4134 0.359999V29.84L64.0534 30.04V31ZM72.3406 39.16C71.8073 39.7733 71.1273 40.32 70.3006 40.8C69.474 41.3067 68.634 41.56 67.7806 41.56C66.954 41.56 66.3006 41.3333 65.8206 40.88C65.3673 40.4533 65.1406 39.8667 65.1406 39.12C65.1406 38.4 65.474 37.6667 66.1406 36.92C66.8873 37.7733 67.7273 38.2 68.6606 38.2C69.994 38.2 71.1406 37.6133 72.1006 36.44C73.0606 35.2933 73.994 33.48 74.9006 31L67.2206 12.76L65.1806 12.52V11.48H73.7006V12.52L70.9406 12.76L76.6606 26.72L81.5806 13.28L78.3806 12.52V11.48H86.0606V12.52L83.2606 13.28L76.5006 31C76.0206 32.2267 75.6473 33.1733 75.3806 33.84C75.114 34.5067 74.674 35.4 74.0606 36.52C73.474 37.6667 72.9006 38.5467 72.3406 39.16ZM91.3213 29.12C91.3213 29.76 91.0946 30.32 90.6413 30.8C90.1879 31.2533 89.6146 31.48 88.9213 31.48C88.2546 31.48 87.6946 31.2533 87.2413 30.8C86.7879 30.3467 86.5613 29.7867 86.5613 29.12C86.5613 28.4267 86.7879 27.8533 87.2413 27.4C87.6946 26.92 88.2546 26.68 88.9213 26.68C89.5879 26.68 90.1479 26.92 90.6013 27.4C91.0813 27.88 91.3213 28.4533 91.3213 29.12Z" fill="white"/>
<path d="M25.27 37.9C25.4633 37.9 25.6167 37.96 25.73 38.08C25.8433 38.1933 25.9 38.3467 25.9 38.54V44.41C25.9 44.6033 25.84 44.76 25.72 44.88C25.6067 45 25.4567 45.06 25.27 45.06C25.0767 45.06 24.9233 45 24.81 44.88C24.6967 44.76 24.64 44.6033 24.64 44.41V41.94H21.03V44.41C21.03 44.6033 20.97 44.76 20.85 44.88C20.7367 45 20.5833 45.06 20.39 45.06C20.2033 45.06 20.05 45 19.93 44.88C19.8167 44.76 19.76 44.6033 19.76 44.41V38.54C19.76 38.3467 19.8167 38.1933 19.93 38.08C20.0433 37.96 20.1967 37.9 20.39 37.9C20.5833 37.9 20.7367 37.96 20.85 38.08C20.97 38.1933 21.03 38.3467 21.03 38.54V40.9H24.64V38.54C24.64 38.3467 24.6967 38.1933 24.81 38.08C24.9233 37.96 25.0767 37.9 25.27 37.9ZM30.5563 45.09C29.8696 45.09 29.2729 44.9433 28.7663 44.65C28.2663 44.3567 27.8796 43.9367 27.6063 43.39C27.3329 42.8433 27.1963 42.2033 27.1963 41.47C27.1963 40.7367 27.3296 40.1 27.5963 39.56C27.8696 39.0133 28.2596 38.5933 28.7663 38.3C29.2729 38.0067 29.8696 37.86 30.5563 37.86C31.2429 37.86 31.8363 38.0067 32.3363 38.3C32.8429 38.5933 33.2296 39.0133 33.4963 39.56C33.7696 40.1 33.9063 40.7367 33.9063 41.47C33.9063 42.2033 33.7696 42.8433 33.4963 43.39C33.2229 43.9367 32.8329 44.3567 32.3263 44.65C31.8263 44.9433 31.2363 45.09 30.5563 45.09ZM30.5563 44.06C31.2029 44.06 31.7063 43.8367 32.0663 43.39C32.4329 42.9433 32.6163 42.3033 32.6163 41.47C32.6163 40.6367 32.4329 40 32.0663 39.56C31.7063 39.1133 31.2029 38.89 30.5563 38.89C29.9029 38.89 29.3929 39.1133 29.0263 39.56C28.6663 40 28.4863 40.6367 28.4863 41.47C28.4863 42.3033 28.6663 42.9433 29.0263 43.39C29.3929 43.8367 29.9029 44.06 30.5563 44.06ZM38.1192 45.09C37.1526 45.09 36.4192 44.84 35.9192 44.34C35.4192 43.84 35.1692 43.11 35.1692 42.15V38.54C35.1692 38.3467 35.2259 38.1933 35.3392 38.08C35.4526 37.96 35.6059 37.9 35.7992 37.9C35.9926 37.9 36.1459 37.96 36.2592 38.08C36.3726 38.1933 36.4292 38.3467 36.4292 38.54V42.22C36.4292 42.8267 36.5726 43.2867 36.8592 43.6C37.1459 43.9067 37.5659 44.06 38.1192 44.06C38.6659 44.06 39.0826 43.9033 39.3692 43.59C39.6559 43.2767 39.7992 42.82 39.7992 42.22V38.54C39.7992 38.3467 39.8559 38.1933 39.9692 38.08C40.0826 37.96 40.2359 37.9 40.4292 37.9C40.6226 37.9 40.7759 37.96 40.8892 38.08C41.0026 38.1933 41.0592 38.3467 41.0592 38.54V42.15C41.0592 43.1033 40.8092 43.8333 40.3092 44.34C39.8092 44.84 39.0792 45.09 38.1192 45.09ZM44.9832 45.09C44.4699 45.09 43.9832 45.0233 43.5232 44.89C43.0699 44.75 42.6999 44.5633 42.4132 44.33C42.2599 44.2167 42.1832 44.0567 42.1832 43.85C42.1832 43.71 42.2232 43.59 42.3032 43.49C42.3899 43.3833 42.4899 43.33 42.6032 43.33C42.7232 43.33 42.8599 43.3767 43.0132 43.47C43.2999 43.6767 43.5999 43.8267 43.9132 43.92C44.2265 44.0133 44.5732 44.06 44.9532 44.06C45.4399 44.06 45.8132 43.9767 46.0732 43.81C46.3332 43.6367 46.4632 43.3867 46.4632 43.06C46.4632 42.8067 46.3399 42.6133 46.0932 42.48C45.8532 42.34 45.4499 42.2067 44.8832 42.08C44.2965 41.9533 43.8199 41.8067 43.4532 41.64C43.0865 41.4733 42.8099 41.26 42.6232 41C42.4365 40.74 42.3432 40.41 42.3432 40.01C42.3432 39.5967 42.4599 39.2267 42.6932 38.9C42.9265 38.5733 43.2499 38.32 43.6632 38.14C44.0832 37.9533 44.5532 37.86 45.0732 37.86C46.0265 37.86 46.8032 38.1133 47.4032 38.62C47.4899 38.6933 47.5499 38.7667 47.5832 38.84C47.6232 38.9067 47.6432 38.9933 47.6432 39.1C47.6432 39.24 47.5999 39.3633 47.5132 39.47C47.4332 39.57 47.3365 39.62 47.2232 39.62C47.1565 39.62 47.0932 39.61 47.0332 39.59C46.9799 39.57 46.9065 39.5333 46.8132 39.48C46.5399 39.28 46.2732 39.1333 46.0132 39.04C45.7599 38.94 45.4465 38.89 45.0732 38.89C44.6199 38.89 44.2599 38.9833 43.9932 39.17C43.7332 39.35 43.6032 39.6033 43.6032 39.93C43.6032 40.2033 43.7199 40.4133 43.9532 40.56C44.1865 40.7067 44.5832 40.8433 45.1432 40.97C45.7365 41.1033 46.2165 41.2533 46.5832 41.42C46.9565 41.58 47.2399 41.7867 47.4332 42.04C47.6332 42.2933 47.7332 42.61 47.7332 42.99C47.7332 43.4033 47.6165 43.77 47.3832 44.09C47.1565 44.4033 46.8332 44.65 46.4132 44.83C45.9999 45.0033 45.5232 45.09 44.9832 45.09ZM49.5402 45C49.3468 45 49.1935 44.9467 49.0802 44.84C48.9735 44.7333 48.9202 44.5833 48.9202 44.39V38.56C48.9202 38.3667 48.9735 38.2167 49.0802 38.11C49.1935 38.0033 49.3468 37.95 49.5402 37.95H53.1502C53.3435 37.95 53.4935 37.9933 53.6002 38.08C53.7068 38.1667 53.7602 38.29 53.7602 38.45C53.7602 38.6167 53.7068 38.7467 53.6002 38.84C53.4935 38.9267 53.3435 38.97 53.1502 38.97H50.1802V40.91H52.9502C53.1435 40.91 53.2935 40.9533 53.4002 41.04C53.5068 41.1267 53.5602 41.2533 53.5602 41.42C53.5602 41.58 53.5068 41.7033 53.4002 41.79C53.2935 41.8767 53.1435 41.92 52.9502 41.92H50.1802V43.98H53.1502C53.3435 43.98 53.4935 44.0267 53.6002 44.12C53.7068 44.2067 53.7602 44.3333 53.7602 44.5C53.7602 44.66 53.7068 44.7833 53.6002 44.87C53.4935 44.9567 53.3435 45 53.1502 45H49.5402Z" fill="white" fill-opacity="0.8"/>
<line x1="35.7071" y1="1.70711" x2="30.7071" y2="6.70711" stroke="white" stroke-width="2"/>
</svg>
